<svg xmlns="http://www.w3.org/2000/svg" xmlns:xlink="http://www.w3.org/1999/xlink" width="1985pt" height="1723pt" viewBox="0 0 1985.47 1722.76"><g id="graph0" class="graph" transform="scale(1 1) rotate(0) translate(4 1718.7588)"><title>%0</title><polygon fill="#fff" stroke="transparent" points="-4 4 -4 -1718.759 1981.473 -1718.759 1981.473 4 -4 4"/><g id="node1" class="node"><title>zero</title><polygon fill="none" stroke="#000" points="1253.998 -884.062 1199.998 -884.062 1199.998 -848.062 1253.998 -848.062 1253.998 -884.062"/><text x="1226.998" y="-861.862" fill="#000" font-family="Times,serif" font-size="14" text-anchor="middle">zero</text></g><g id="node2" class="node"><title>deployer</title><polygon fill="none" stroke="#000" points="1484.88 -884.062 1419.919 -884.062 1419.919 -848.062 1484.88 -848.062 1484.88 -884.062"/><text x="1452.4" y="-861.862" fill="#000" font-family="Times,serif" font-size="14" text-anchor="middle">deployer</text></g><g id="node3" class="node"><title>MCD_DEPLOY</title><polygon fill="none" stroke="#000" points="1378.907 -996.763 1300.491 -996.763 1300.491 -960.763 1378.907 -960.763 1378.907 -996.763"/><text x="1339.699" y="-974.563" fill="#000" font-family="Times,serif" font-size="14" text-anchor="middle">DssDeploy</text></g><g id="edge8" class="edge"><title>MCD_DEPLOY-&gt;zero</title><path fill="none" stroke="#000" d="M1321.5914,-960.6554C1302.8605,-941.9244 1273.4556,-912.5195 1252.4032,-891.4672"/><polygon fill="#000" stroke="#000" points="1254.606 -888.72 1245.06 -884.124 1249.657 -893.67 1254.606 -888.72"/><text x="1261.724" y="-930.261" fill="#000" font-family="Times,serif" font-size="14" text-anchor="middle">authority</text></g><g id="edge1" class="edge"><title>MCD_DEPLOY-&gt;deployer</title><path fill="none" stroke="#000" d="M1357.8061,-960.6554C1376.5371,-941.9244 1405.942,-912.5195 1426.9943,-891.4672"/><polygon fill="#000" stroke="#000" points="1429.741 -893.67 1434.337 -884.124 1424.791 -888.72 1429.741 -893.67"/><text x="1374.909" y="-930.261" fill="#000" font-family="Times,serif" font-size="14" text-anchor="middle">owner</text></g><g id="node4" class="node"><title>MCD_VAT</title><polygon fill="none" stroke="#000" points="770.736 -1543.799 716.736 -1543.799 716.736 -1507.799 770.736 -1507.799 770.736 -1543.799"/><text x="743.736" y="-1521.599" fill="#000" font-family="Times,serif" font-size="14" text-anchor="middle">Vat</text></g><g id="node7" class="node"><title>MCD_JUG</title><polygon fill="none" stroke="#000" points="890.385 -1413.284 836.385 -1413.284 836.385 -1377.284 890.385 -1377.284 890.385 -1413.284"/><text x="863.385" y="-1391.084" fill="#000" font-family="Times,serif" font-size="14" text-anchor="middle">Jug</text></g><g id="edge18" class="edge"><title>MCD_VAT-&gt;MCD_JUG</title><path fill="none" stroke="#000" d="M760.3731,-1507.6512C780.9729,-1485.1806 816.2014,-1446.753 839.6386,-1421.1875"/><polygon fill="#000" stroke="#000" points="842.327 -1423.435 846.504 -1413.698 837.167 -1418.704 842.327 -1423.435"/><text x="789.123" y="-1468.619" fill="#000" font-family="Times,serif" font-size="14" text-anchor="middle">rely</text></g><g id="node8" class="node"><title>MCD_POT</title><polygon fill="none" stroke="#000" points="737.992 -789.888 683.992 -789.888 683.992 -753.888 737.992 -753.888 737.992 -789.888"/><text x="710.992" y="-767.688" fill="#000" font-family="Times,serif" font-size="14" text-anchor="middle">Pot</text></g><g id="edge19" class="edge"><title>MCD_VAT-&gt;MCD_POT</title><path fill="none" stroke="#000" d="M742.9432,-1507.5361C738.582,-1407.1256 717.5258,-922.3304 712.2117,-799.9776"/><polygon fill="#000" stroke="#000" points="715.705 -799.749 711.774 -789.91 708.712 -800.053 715.705 -799.749"/><text x="716.694" y="-1157.957" fill="#000" font-family="Times,serif" font-size="14" text-anchor="middle">rely</text></g><g id="node12" class="node"><title>MCD_CAT</title><polygon fill="none" stroke="#000" points="61.683 -1285.542 7.683 -1285.542 7.683 -1249.542 61.683 -1249.542 61.683 -1285.542"/><text x="34.683" y="-1263.342" fill="#000" font-family="Times,serif" font-size="14" text-anchor="middle">Cat</text></g><g id="edge22" class="edge"><title>MCD_VAT-&gt;MCD_CAT</title><path fill="none" stroke="#000" d="M716.3751,-1515.8329C606.4774,-1475.8051 197.0781,-1326.6906 71.5269,-1280.9613"/><polygon fill="#000" stroke="#000" points="72.557 -1277.611 61.963 -1277.478 70.161 -1284.189 72.557 -1277.611"/><text x="383.068" y="-1402.597" fill="#000" font-family="Times,serif" font-size="14" text-anchor="middle">rely</text></g><g id="node13" class="node"><title>MCD_SPOT</title><polygon fill="none" stroke="#000" points="573.065 -729.293 516.183 -729.293 516.183 -693.293 573.065 -693.293 573.065 -729.293"/><text x="544.624" y="-707.092" fill="#000" font-family="Times,serif" font-size="14" text-anchor="middle">Spotter</text></g><g id="edge16" class="edge"><title>MCD_VAT-&gt;MCD_SPOT</title><path fill="none" stroke="#000" d="M739.2985,-1507.6446C713.5137,-1402.1669 583.0314,-868.4044 551.4936,-739.3928"/><polygon fill="#000" stroke="#000" points="554.847 -738.373 549.073 -729.49 548.048 -740.035 554.847 -738.373"/><text x="634.513" y="-1127.719" fill="#000" font-family="Times,serif" font-size="14" text-anchor="middle">rely</text></g><g id="node16" class="node"><title>MCD_PAUSE_PROXY</title><polygon fill="none" stroke="#000" points="417.721 -736.976 317.743 -736.976 317.743 -700.976 417.721 -700.976 417.721 -736.976"/><text x="367.732" y="-714.775" fill="#000" font-family="Times,serif" font-size="14" text-anchor="middle">DSPauseProxy</text></g><g id="edge30" class="edge"><title>MCD_VAT-&gt;MCD_PAUSE_PROXY</title><path fill="none" stroke="#000" d="M735.1765,-1507.4311C686.0094,-1401.9292 439.6594,-873.3163 380.513,-746.4011"/><polygon fill="#000" stroke="#000" points="383.675 -744.9 376.278 -737.314 377.33 -747.857 383.675 -744.9"/><text x="546.962" y="-1131.116" fill="#000" font-family="Times,serif" font-size="14" text-anchor="middle">rely</text></g><g id="node19" class="node"><title>MCD_END</title><polygon fill="none" stroke="#000" points="610.249 -1618.591 556.249 -1618.591 556.249 -1582.591 610.249 -1582.591 610.249 -1618.591"/><text x="583.249" y="-1596.391" fill="#000" font-family="Times,serif" font-size="14" text-anchor="middle">End</text></g><g id="edge24" class="edge"><title>MCD_VAT-&gt;MCD_END</title><path fill="none" stroke="#000" d="M716.5119,-1538.4861C689.8016,-1550.9339 648.9052,-1569.9929 619.4631,-1583.7138"/><polygon fill="#000" stroke="#000" points="617.925 -1580.569 610.339 -1587.966 620.881 -1586.914 617.925 -1580.569"/><text x="657.105" y="-1565.3" fill="#000" font-family="Times,serif" font-size="14" text-anchor="middle">rely</text></g><g id="node23" class="node"><title>ETHJoin_A</title><polygon fill="none" stroke="#000" points="965.635 -1246.917 882.327 -1246.917 882.327 -1210.917 965.635 -1210.917 965.635 -1246.917"/><text x="923.981" y="-1224.717" fill="#000" font-family="Times,serif" font-size="14" text-anchor="middle">ETHJoin_A</text></g><g id="edge39" class="edge"><title>MCD_VAT-&gt;ETHJoin_A</title><path fill="none" stroke="#000" d="M754.7402,-1507.6743C785.2845,-1457.3646 871.2494,-1315.7714 907.5148,-1256.0385"/><polygon fill="#000" stroke="#000" points="910.694 -1257.545 912.892 -1247.181 904.711 -1253.913 910.694 -1257.545"/><text x="820.245" y="-1386.056" fill="#000" font-family="Times,serif" font-size="14" text-anchor="middle">rely</text></g><g id="node25" class="node"><title>BATJoin_A</title><polygon fill="none" stroke="#000" points="958.737 -1070.024 873.859 -1070.024 873.859 -1034.024 958.737 -1034.024 958.737 -1070.024"/><text x="916.298" y="-1047.824" fill="#000" font-family="Times,serif" font-size="14" text-anchor="middle">BATJoin_A</text></g><g id="edge43" class="edge"><title>MCD_VAT-&gt;BATJoin_A</title><path fill="none" stroke="#000" d="M750.3953,-1507.5165C776.8191,-1434.969 874.3883,-1167.0893 906.1984,-1079.7535"/><polygon fill="#000" stroke="#000" points="909.525 -1080.846 909.659 -1070.252 902.948 -1078.45 909.525 -1080.846"/><text x="817.414" y="-1297.835" fill="#000" font-family="Times,serif" font-size="14" text-anchor="middle">rely</text></g><g id="node28" class="node"><title>SAIJoin_A</title><polygon fill="none" stroke="#000" points="880.998 -909.537 802.015 -909.537 802.015 -873.537 880.998 -873.537 880.998 -909.537"/><text x="841.506" y="-887.337" fill="#000" font-family="Times,serif" font-size="14" text-anchor="middle">SAIJoin_A</text></g><g id="edge47" class="edge"><title>MCD_VAT-&gt;SAIJoin_A</title><path fill="none" stroke="#000" d="M746.557,-1507.5005C760.3146,-1418.2508 820.3923,-1028.5094 837.1512,-919.7892"/><polygon fill="#000" stroke="#000" points="840.657 -920.022 838.721 -909.606 833.738 -918.956 840.657 -920.022"/><text x="780.971" y="-1217.845" fill="#000" font-family="Times,serif" font-size="14" text-anchor="middle">rely</text></g><g id="node5" class="node"><title>MCD_DAI</title><polygon fill="none" stroke="#000" points="1457.925 -1206.062 1403.925 -1206.062 1403.925 -1170.062 1457.925 -1170.062 1457.925 -1206.062"/><text x="1430.925" y="-1183.862" fill="#000" font-family="Times,serif" font-size="14" text-anchor="middle">Dai</text></g><g id="node6" class="node"><title>MCD_JOIN_DAI</title><polygon fill="none" stroke="#000" points="1589.247 -1206.062 1530.15 -1206.062 1530.15 -1170.062 1589.247 -1170.062 1589.247 -1206.062"/><text x="1559.699" y="-1183.862" fill="#000" font-family="Times,serif" font-size="14" text-anchor="middle">DaiJoin</text></g><g id="edge17" class="edge"><title>MCD_DAI-&gt;MCD_JOIN_DAI</title><path fill="none" stroke="#000" d="M1458.2348,-1188.0618C1476.0898,-1188.0618 1499.7154,-1188.0618 1519.6763,-1188.0618"/><polygon fill="#000" stroke="#000" points="1519.731 -1191.562 1529.73 -1188.062 1519.73 -1184.562 1519.731 -1191.562"/><text x="1478.073" y="-1192.262" fill="#000" font-family="Times,serif" font-size="14" text-anchor="middle">rely</text></g><g id="edge33" class="edge"><title>MCD_JUG-&gt;MCD_PAUSE_PROXY</title><path fill="none" stroke="#000" d="M850.128,-1377.1945C781.7024,-1283.8293 468.55,-856.5396 387.1263,-745.4387"/><polygon fill="#000" stroke="#000" points="389.765 -743.118 381.03 -737.121 384.119 -747.256 389.765 -743.118"/><text x="607.744" y="-1065.517" fill="#000" font-family="Times,serif" font-size="14" text-anchor="middle">rely</text></g><g id="edge34" class="edge"><title>MCD_POT-&gt;MCD_PAUSE_PROXY</title><path fill="none" stroke="#000" d="M683.7697,-767.6919C628.7943,-759.2176 503.3632,-739.8827 428.0994,-728.281"/><polygon fill="#000" stroke="#000" points="428.241 -724.762 417.825 -726.697 427.175 -731.68 428.241 -724.762"/><text x="545.052" y="-752.187" fill="#000" font-family="Times,serif" font-size="14" text-anchor="middle">rely</text></g><g id="edge27" class="edge"><title>MCD_POT-&gt;MCD_END</title><path fill="none" stroke="#000" d="M708.2048,-789.9674C691.7912,-896.447 607.7579,-1441.5959 587.5998,-1572.3673"/><polygon fill="#000" stroke="#000" points="584.119 -1571.978 586.054 -1582.395 591.037 -1573.045 584.119 -1571.978"/><text x="637.019" y="-1185.367" fill="#000" font-family="Times,serif" font-size="14" text-anchor="middle">rely</text></g><g id="node9" class="node"><title>MCD_FLAP</title><polygon fill="none" stroke="#000" points="236.508 -811.767 177.981 -811.767 177.981 -775.767 236.508 -775.767 236.508 -811.767"/><text x="207.245" y="-789.567" fill="#000" font-family="Times,serif" font-size="14" text-anchor="middle">Flapper</text></g><g id="node11" class="node"><title>MCD_VOW</title><polygon fill="none" stroke="#000" points="54 -1108.649 0 -1108.649 0 -1072.649 54 -1072.649 54 -1108.649"/><text x="27" y="-1086.449" fill="#000" font-family="Times,serif" font-size="14" text-anchor="middle">Vow</text></g><g id="edge20" class="edge"><title>MCD_FLAP-&gt;MCD_VOW</title><path fill="none" stroke="#000" d="M196.241,-811.8918C165.6966,-862.2015 79.7317,-1003.7947 43.4663,-1063.5276"/><polygon fill="#000" stroke="#000" points="40.287 -1062.021 38.089 -1072.385 46.27 -1065.653 40.287 -1062.021"/><text x="130.737" y="-941.91" fill="#000" font-family="Times,serif" font-size="14" text-anchor="middle">rely</text></g><g id="edge36" class="edge"><title>MCD_FLAP-&gt;MCD_PAUSE_PROXY</title><path fill="none" stroke="#000" d="M236.6805,-780.0494C259.9123,-769.2227 292.7961,-753.8979 319.8112,-741.308"/><polygon fill="#000" stroke="#000" points="321.511 -744.377 329.096 -736.981 318.554 -738.033 321.511 -744.377"/><text x="267.363" y="-764.879" fill="#000" font-family="Times,serif" font-size="14" text-anchor="middle">rely</text></g><g id="node10" class="node"><title>MCD_FLOP</title><polygon fill="none" stroke="#000" points="117.146 -942.282 58.045 -942.282 58.045 -906.282 117.146 -906.282 117.146 -942.282"/><text x="87.596" y="-920.082" fill="#000" font-family="Times,serif" font-size="14" text-anchor="middle">Flopper</text></g><g id="edge21" class="edge"><title>MCD_FLOP-&gt;MCD_VOW</title><path fill="none" stroke="#000" d="M80.9955,-942.4029C70.3866,-971.5299 49.4718,-1028.9522 37.0155,-1063.1515"/><polygon fill="#000" stroke="#000" points="33.726 -1061.957 33.592 -1072.551 40.303 -1064.352 33.726 -1061.957"/><text x="48.123" y="-1006.977" fill="#000" font-family="Times,serif" font-size="14" text-anchor="middle">rely</text></g><g id="edge37" class="edge"><title>MCD_FLOP-&gt;MCD_PAUSE_PROXY</title><path fill="none" stroke="#000" d="M112.4558,-906.0624C163.0208,-869.0043 277.8568,-784.8432 334.6555,-743.2165"/><polygon fill="#000" stroke="#000" points="336.93 -745.889 342.927 -737.154 332.793 -740.242 336.93 -745.889"/><text x="212.673" y="-828.839" fill="#000" font-family="Times,serif" font-size="14" text-anchor="middle">rely</text></g><g id="edge23" class="edge"><title>MCD_VOW-&gt;MCD_CAT</title><path fill="none" stroke="#000" d="M27.7933,-1108.9137C29.1367,-1139.8454 31.8684,-1202.7389 33.4588,-1239.3569"/><polygon fill="#000" stroke="#000" points="29.963 -1239.538 33.894 -1249.377 36.957 -1239.234 29.963 -1239.538"/><text x="19.743" y="-1178.335" fill="#000" font-family="Times,serif" font-size="14" text-anchor="middle">rely</text></g><g id="edge32" class="edge"><title>MCD_VOW-&gt;MCD_PAUSE_PROXY</title><path fill="none" stroke="#000" d="M43.6649,-1072.4712C99.3713,-1011.706 279.2462,-815.4966 344.1241,-744.7271"/><polygon fill="#000" stroke="#000" points="346.921 -746.855 351.099 -737.119 341.762 -742.125 346.921 -746.855"/><text x="183.012" y="-912.799" fill="#000" font-family="Times,serif" font-size="14" text-anchor="middle">rely</text></g><g id="edge26" class="edge"><title>MCD_VOW-&gt;MCD_END</title><path fill="none" stroke="#000" d="M46.7972,-1108.7985C130.8477,-1185.8517 458.28,-1486.0251 555.7362,-1575.368"/><polygon fill="#000" stroke="#000" points="553.663 -1578.216 563.4 -1582.393 558.394 -1573.056 553.663 -1578.216"/><text x="290.384" y="-1346.283" fill="#000" font-family="Times,serif" font-size="14" text-anchor="middle">rely</text></g><g id="edge31" class="edge"><title>MCD_CAT-&gt;MCD_PAUSE_PROXY</title><path fill="none" stroke="#000" d="M45.7641,-1249.29C94.8639,-1168.4176 292.9527,-842.1445 351.4131,-745.8542"/><polygon fill="#000" stroke="#000" points="354.58 -747.382 356.778 -737.018 348.597 -743.749 354.58 -747.382"/><text x="187.706" y="-1001.772" fill="#000" font-family="Times,serif" font-size="14" text-anchor="middle">rely</text></g><g id="edge25" class="edge"><title>MCD_CAT-&gt;MCD_END</title><path fill="none" stroke="#000" d="M61.8865,-1284.0577C152.6494,-1339.1622 445.1111,-1516.7234 547.4684,-1578.8671"/><polygon fill="#000" stroke="#000" points="545.841 -1581.974 556.206 -1584.172 549.474 -1575.99 545.841 -1581.974"/><text x="293.795" y="-1435.662" fill="#000" font-family="Times,serif" font-size="14" text-anchor="middle">rely</text></g><g id="edge35" class="edge"><title>MCD_SPOT-&gt;MCD_PAUSE_PROXY</title><path fill="none" stroke="#000" d="M516.2034,-712.5269C492.5282,-713.5552 457.9883,-715.0554 428.1794,-716.3501"/><polygon fill="#000" stroke="#000" points="427.697 -712.868 417.858 -716.798 428.001 -719.861 427.697 -712.868"/><text x="461.308" y="-718.639" fill="#000" font-family="Times,serif" font-size="14" text-anchor="middle">rely</text></g><g id="edge28" class="edge"><title>MCD_SPOT-&gt;MCD_END</title><path fill="none" stroke="#000" d="M545.4133,-729.4595C550.2674,-841.2197 576.0669,-1435.2246 582.0221,-1572.3368"/><polygon fill="#000" stroke="#000" points="578.531 -1572.614 582.462 -1582.452 585.524 -1572.31 578.531 -1572.614"/><text x="552.835" y="-1155.098" fill="#000" font-family="Times,serif" font-size="14" text-anchor="middle">rely</text></g><g id="node14" class="node"><title>MCD_GOV</title><polygon fill="none" stroke="#000" points="1578.4 -884.062 1524.4 -884.062 1524.4 -848.062 1578.4 -848.062 1578.4 -884.062"/><text x="1551.4" y="-861.862" fill="#000" font-family="Times,serif" font-size="14" text-anchor="middle">MKR</text></g><g id="edge15" class="edge"><title>MCD_GOV-&gt;deployer</title><path fill="none" stroke="#000" d="M1524.3475,-866.0618C1515.3396,-866.0618 1505.0733,-866.0618 1495.1729,-866.0618"/><polygon fill="#000" stroke="#000" points="1495.056 -862.562 1485.056 -866.062 1495.056 -869.562 1495.056 -862.562"/><text x="1501.015" y="-853.462" fill="#000" font-family="Times,serif" font-size="14" text-anchor="middle">owner</text></g><g id="node31" class="node"><title>0x2F1b834D8Bb7f469a7C75cc75873CD94EFc363AD</title><polygon fill="none" stroke="#000" points="1977.509 -884.062 1650.363 -884.062 1650.363 -848.062 1977.509 -848.062 1977.509 -884.062"/><text x="1813.936" y="-861.862" fill="#000" font-family="Times,serif" font-size="14" text-anchor="middle">0x2F1b834D8Bb7f469a7C75cc75873CD94EFc363AD</text></g><g id="edge7" class="edge"><title>MCD_GOV-&gt;0x2F1b834D8Bb7f469a7C75cc75873CD94EFc363AD</title><path fill="none" stroke="#000" d="M1578.5069,-866.0618C1594.4411,-866.0618 1616.0902,-866.0618 1639.8398,-866.0618"/><polygon fill="#000" stroke="#000" points="1640.136 -869.562 1650.136 -866.062 1640.136 -862.562 1640.136 -869.562"/><text x="1621.81" y="-853.462" fill="#000" font-family="Times,serif" font-size="14" text-anchor="middle">authority</text></g><g id="node15" class="node"><title>MCD_PAUSE</title><polygon fill="none" stroke="#000" points="338.409 -481.84 272.315 -481.84 272.315 -445.84 338.409 -445.84 338.409 -481.84"/><text x="305.362" y="-459.64" fill="#000" font-family="Times,serif" font-size="14" text-anchor="middle">DSPause</text></g><g id="edge14" class="edge"><title>MCD_PAUSE-&gt;zero</title><path fill="none" stroke="#000" d="M338.4354,-478.2741C480.8731,-540.437 1041.4896,-785.102 1190.4751,-850.1225"/><polygon fill="#000" stroke="#000" points="1189.119 -853.35 1199.684 -854.142 1191.919 -846.934 1189.119 -853.35"/><text x="746.964" y="-668.398" fill="#000" font-family="Times,serif" font-size="14" text-anchor="middle">owner</text></g><g id="node17" class="node"><title>MCD_ADM</title><polygon fill="none" stroke="#000" points="316.909 -396.162 251.926 -396.162 251.926 -360.162 316.909 -360.162 316.909 -396.162"/><text x="284.418" y="-373.962" fill="#000" font-family="Times,serif" font-size="14" text-anchor="middle">DSChief</text></g><g id="edge6" class="edge"><title>MCD_PAUSE-&gt;MCD_ADM</title><path fill="none" stroke="#000" d="M300.9203,-445.6702C298.1157,-434.1973 294.4357,-419.1436 291.2626,-406.1634"/><polygon fill="#000" stroke="#000" points="294.627 -405.189 288.853 -396.306 287.828 -406.851 294.627 -405.189"/><text x="270.818" y="-430.117" fill="#000" font-family="Times,serif" font-size="14" text-anchor="middle">authority</text></g><g id="edge13" class="edge"><title>MCD_PAUSE_PROXY-&gt;MCD_PAUSE</title><path fill="none" stroke="#000" d="M363.2464,-700.6268C352.4804,-656.5865 325.1187,-544.6583 312.2501,-492.0169"/><polygon fill="#000" stroke="#000" points="315.582 -490.906 309.807 -482.023 308.782 -492.568 315.582 -490.906"/><text x="320.257" y="-600.522" fill="#000" font-family="Times,serif" font-size="14" text-anchor="middle">owner</text></g><g id="edge12" class="edge"><title>MCD_ADM-&gt;zero</title><path fill="none" stroke="#000" d="M317.137,-395.0986C461.4042,-469.7743 1040.1893,-769.3658 1190.9478,-847.4015"/><polygon fill="#000" stroke="#000" points="1189.357 -850.519 1199.846 -852.008 1192.574 -844.302 1189.357 -850.519"/><text x="736.552" y="-625.45" fill="#000" font-family="Times,serif" font-size="14" text-anchor="middle">owner</text></g><g id="edge5" class="edge"><title>MCD_ADM-&gt;MCD_ADM</title><path fill="none" stroke="#000" d="M316.9573,-384.9057C327.0151,-384.7695 334.9133,-382.5217 334.9133,-378.1623 334.9133,-375.4377 331.8281,-373.5379 327.0586,-372.4629"/><polygon fill="#000" stroke="#000" points="327.264 -368.966 316.957 -371.419 326.544 -375.928 327.264 -368.966"/><text x="360.187" y="-373.962" fill="#000" font-family="Times,serif" font-size="14" text-anchor="middle">authority</text></g><g id="node18" class="node"><title>PROXY_DEPLOYER</title><polygon fill="none" stroke="#000" points="1392.229 -771.361 1287.169 -771.361 1287.169 -735.361 1392.229 -735.361 1392.229 -771.361"/><text x="1339.699" y="-749.161" fill="#000" font-family="Times,serif" font-size="14" text-anchor="middle">Proxy Deployer</text></g><g id="edge4" class="edge"><title>PROXY_DEPLOYER-&gt;zero</title><path fill="none" stroke="#000" d="M1321.5914,-771.4682C1302.8605,-790.1991 1273.4556,-819.6041 1252.4032,-840.6564"/><polygon fill="#000" stroke="#000" points="1249.657 -838.453 1245.06 -847.999 1254.606 -843.403 1249.657 -838.453"/><text x="1261.724" y="-810.262" fill="#000" font-family="Times,serif" font-size="14" text-anchor="middle">authority</text></g><g id="edge11" class="edge"><title>PROXY_DEPLOYER-&gt;deployer</title><path fill="none" stroke="#000" d="M1357.8061,-771.4682C1376.5371,-790.1991 1405.942,-819.6041 1426.9943,-840.6564"/><polygon fill="#000" stroke="#000" points="1424.791 -843.403 1434.337 -847.999 1429.741 -838.453 1424.791 -843.403"/><text x="1374.909" y="-810.262" fill="#000" font-family="Times,serif" font-size="14" text-anchor="middle">owner</text></g><g id="edge38" class="edge"><title>MCD_END-&gt;MCD_PAUSE_PROXY</title><path fill="none" stroke="#000" d="M578.8466,-1582.5805C551.7912,-1471.9052 408.1173,-884.1801 374.6867,-747.4257"/><polygon fill="#000" stroke="#000" points="377.992 -746.209 372.218 -737.326 371.193 -747.871 377.992 -746.209"/><text x="465.884" y="-1169.203" fill="#000" font-family="Times,serif" font-size="14" text-anchor="middle">rely</text></g><g id="node20" class="node"><title>MCD_ESM</title><polygon fill="none" stroke="#000" points="633.758 -1714.759 579.758 -1714.759 579.758 -1678.759 633.758 -1678.759 633.758 -1714.759"/><text x="606.758" y="-1692.559" fill="#000" font-family="Times,serif" font-size="14" text-anchor="middle">ESM</text></g><g id="edge29" class="edge"><title>MCD_END-&gt;MCD_ESM</title><path fill="none" stroke="#000" d="M587.6711,-1618.6791C591.1189,-1632.783 595.9681,-1652.6196 599.9159,-1668.7688"/><polygon fill="#000" stroke="#000" points="596.582 -1669.869 602.356 -1678.751 603.381 -1668.206 596.582 -1669.869"/><text x="582.911" y="-1647.924" fill="#000" font-family="Times,serif" font-size="14" text-anchor="middle">rely</text></g><g id="node21" class="node"><title>SAI_TUB</title><polygon fill="none" stroke="#000" points="880.817 -344.25 823.933 -344.25 823.933 -308.25 880.817 -308.25 880.817 -344.25"/><text x="852.375" y="-322.05" fill="#000" font-family="Times,serif" font-size="14" text-anchor="middle">SaiTub</text></g><g id="edge10" class="edge"><title>SAI_TUB-&gt;zero</title><path fill="none" stroke="#000" d="M865.0539,-344.5195C920.586,-424.5383 1142.514,-744.3249 1208.4399,-839.3207"/><polygon fill="#000" stroke="#000" points="1205.745 -841.577 1214.322 -847.797 1211.496 -837.586 1205.745 -841.577"/><text x="1019.256" y="-596.12" fill="#000" font-family="Times,serif" font-size="14" text-anchor="middle">owner</text></g><g id="node30" class="node"><title>0x6a884c7aF48e29a20be9Ff04bddE112b5596FcEE</title><polygon fill="none" stroke="#000" points="941.103 -36 631.766 -36 631.766 0 941.103 0 941.103 -36"/><text x="786.435" y="-13.8" fill="#000" font-family="Times,serif" font-size="14" text-anchor="middle">0x6a884c7aF48e29a20be9Ff04bddE112b5596FcEE</text></g><g id="edge3" class="edge"><title>SAI_TUB-&gt;0x6a884c7aF48e29a20be9Ff04bddE112b5596FcEE</title><path fill="none" stroke="#000" d="M848.4475,-307.8904C837.3608,-256.0635 805.7667,-108.3717 792.4597,-46.1657"/><polygon fill="#000" stroke="#000" points="795.856 -45.31 790.341 -36.263 789.011 -46.774 795.856 -45.31"/><text x="795.18" y="-181.228" fill="#000" font-family="Times,serif" font-size="14" text-anchor="middle">authority</text></g><g id="node22" class="node"><title>MIGRATION</title><polygon fill="none" stroke="#000" points="1006.578 -831.908 888.281 -831.908 888.281 -795.908 1006.578 -795.908 1006.578 -831.908"/><text x="947.429" y="-809.708" fill="#000" font-family="Times,serif" font-size="14" text-anchor="middle">ScdMcdMigration</text></g><g id="edge53" class="edge"><title>ETHJoin_A-&gt;MCD_PAUSE_PROXY</title><path fill="none" stroke="#000" d="M904.1839,-1210.7677C820.1334,-1133.7144 492.7011,-833.541 395.2449,-744.1981"/><polygon fill="#000" stroke="#000" points="397.318 -741.35 387.582 -737.173 392.588 -746.51 397.318 -741.35"/><text x="638.832" y="-981.683" fill="#000" font-family="Times,serif" font-size="14" text-anchor="middle">rely</text></g><g id="node24" class="node"><title>Flipper_ETH-A</title><polygon fill="none" stroke="#000" points="162.394 -1446.029 56.556 -1446.029 56.556 -1410.029 162.394 -1410.029 162.394 -1446.029"/><text x="109.475" y="-1423.829" fill="#000" font-family="Times,serif" font-size="14" text-anchor="middle">Flipper_ETH-A</text></g><g id="edge40" class="edge"><title>Flipper_ETH-A-&gt;MCD_CAT</title><path fill="none" stroke="#000" d="M101.0407,-1409.9309C88.023,-1381.9978 62.941,-1328.1772 47.6188,-1295.2992"/><polygon fill="#000" stroke="#000" points="50.598 -1293.405 43.201 -1285.82 44.253 -1296.362 50.598 -1293.405"/><text x="63.447" y="-1356.815" fill="#000" font-family="Times,serif" font-size="14" text-anchor="middle">rely</text></g><g id="edge42" class="edge"><title>Flipper_ETH-A-&gt;MCD_PAUSE_PROXY</title><path fill="none" stroke="#000" d="M116.1184,-1409.7891C151.2188,-1313.4197 315.0754,-863.5456 357.6187,-746.7415"/><polygon fill="#000" stroke="#000" points="360.999 -747.689 361.132 -737.095 354.421 -745.293 360.999 -747.689"/><text x="225.986" y="-1082.465" fill="#000" font-family="Times,serif" font-size="14" text-anchor="middle">rely</text></g><g id="edge41" class="edge"><title>Flipper_ETH-A-&gt;MCD_END</title><path fill="none" stroke="#000" d="M159.2816,-1446.1699C254.9382,-1481.0106 462.3346,-1556.5501 546.5729,-1587.2321"/><polygon fill="#000" stroke="#000" points="545.626 -1590.612 556.22 -1590.746 548.021 -1584.035 545.626 -1590.612"/><text x="342.044" y="-1520.901" fill="#000" font-family="Times,serif" font-size="14" text-anchor="middle">rely</text></g><g id="edge54" class="edge"><title>BATJoin_A-&gt;MCD_PAUSE_PROXY</title><path fill="none" stroke="#000" d="M886.4152,-1033.8817C793.5412,-977.4954 509.9536,-805.322 406.2425,-742.3563"/><polygon fill="#000" stroke="#000" points="408.006 -739.333 397.642 -737.135 404.373 -745.316 408.006 -739.333"/><text x="635.446" y="-892.319" fill="#000" font-family="Times,serif" font-size="14" text-anchor="middle">rely</text></g><g id="node26" class="node"><title>Flipper_BAT-A</title><polygon fill="none" stroke="#000" points="293.192 -1565.678 186.787 -1565.678 186.787 -1529.678 293.192 -1529.678 293.192 -1565.678"/><text x="239.989" y="-1543.478" fill="#000" font-family="Times,serif" font-size="14" text-anchor="middle">Flipper_BAT-A</text></g><g id="edge44" class="edge"><title>Flipper_BAT-A-&gt;MCD_CAT</title><path fill="none" stroke="#000" d="M226.5187,-1529.2975C191.1228,-1481.0005 95.381,-1350.3629 54.08,-1294.0085"/><polygon fill="#000" stroke="#000" points="56.671 -1291.623 47.936 -1285.626 51.025 -1295.761 56.671 -1291.623"/><text x="129.416" y="-1399.053" fill="#000" font-family="Times,serif" font-size="14" text-anchor="middle">rely</text></g><g id="edge46" class="edge"><title>Flipper_BAT-A-&gt;MCD_PAUSE_PROXY</title><path fill="none" stroke="#000" d="M242.7763,-1529.5987C259.1899,-1423.1191 343.2232,-877.9702 363.3813,-747.1988"/><polygon fill="#000" stroke="#000" points="366.863 -747.588 364.927 -737.171 359.944 -746.521 366.863 -747.588"/><text x="292.196" y="-1142.599" fill="#000" font-family="Times,serif" font-size="14" text-anchor="middle">rely</text></g><g id="edge45" class="edge"><title>Flipper_BAT-A-&gt;MCD_END</title><path fill="none" stroke="#000" d="M293.2472,-1555.8875C363.3842,-1566.699 484.9425,-1585.4369 545.9944,-1594.8479"/><polygon fill="#000" stroke="#000" points="545.544 -1598.32 555.961 -1596.384 546.611 -1591.401 545.544 -1598.32"/><text x="408.738" y="-1562.768" fill="#000" font-family="Times,serif" font-size="14" text-anchor="middle">rely</text></g><g id="node27" class="node"><title>SAI</title><polygon fill="none" stroke="#000" points="579.453 -247.231 525.453 -247.231 525.453 -211.231 579.453 -211.231 579.453 -247.231"/><text x="552.453" y="-225.031" fill="#000" font-family="Times,serif" font-size="14" text-anchor="middle">SAI</text></g><g id="edge2" class="edge"><title>SAI-&gt;zero</title><path fill="none" stroke="#000" d="M571.5539,-247.2641C666.7155,-337.1052 1089.4528,-736.2069 1200.3078,-840.864"/><polygon fill="#000" stroke="#000" points="1198.068 -843.562 1207.742 -847.882 1202.873 -838.472 1198.068 -843.562"/><text x="868.44" y="-548.264" fill="#000" font-family="Times,serif" font-size="14" text-anchor="middle">owner</text></g><g id="edge9" class="edge"><title>SAI-&gt;0x6a884c7aF48e29a20be9Ff04bddE112b5596FcEE</title><path fill="none" stroke="#000" d="M572.4018,-211.2214C614.1717,-173.513 710.9077,-86.1831 758.6955,-43.0419"/><polygon fill="#000" stroke="#000" points="761.126 -45.563 766.203 -36.264 756.435 -40.367 761.126 -45.563"/><text x="640.275" y="-131.332" fill="#000" font-family="Times,serif" font-size="14" text-anchor="middle">authority</text></g><g id="edge52" class="edge"><title>SAIJoin_A-&gt;MCD_PAUSE_PROXY</title><path fill="none" stroke="#000" d="M801.9273,-877.1215C718.6337,-846.7837 524.8637,-776.2073 426.8143,-740.495"/><polygon fill="#000" stroke="#000" points="427.939 -737.18 417.345 -737.046 425.544 -743.757 427.939 -737.18"/><text x="603.488" y="-813.008" fill="#000" font-family="Times,serif" font-size="14" text-anchor="middle">rely</text></g><g id="edge51" class="edge"><title>SAIJoin_A-&gt;MIGRATION</title><path fill="none" stroke="#000" d="M866.0733,-873.5325C880.4086,-863.0264 898.6842,-849.6325 914.2812,-838.2018"/><polygon fill="#000" stroke="#000" points="916.632 -840.819 922.629 -832.084 912.494 -835.173 916.632 -840.819"/><text x="879.294" y="-860.067" fill="#000" font-family="Times,serif" font-size="14" text-anchor="middle">rely</text></g><g id="node29" class="node"><title>Flipper_SAI-A</title><polygon fill="none" stroke="#000" points="456.613 -1626.274 356.101 -1626.274 356.101 -1590.274 456.613 -1590.274 456.613 -1626.274"/><text x="406.357" y="-1604.074" fill="#000" font-family="Times,serif" font-size="14" text-anchor="middle">Flipper_SAI-A</text></g><g id="edge48" class="edge"><title>Flipper_SAI-A-&gt;MCD_CAT</title><path fill="none" stroke="#000" d="M386.6365,-1590.195C324.6433,-1533.3627 133.5879,-1358.2128 62.077,-1292.6552"/><polygon fill="#000" stroke="#000" points="64.092 -1289.755 54.356 -1285.577 59.362 -1294.914 64.092 -1289.755"/><text x="213.474" y="-1445.625" fill="#000" font-family="Times,serif" font-size="14" text-anchor="middle">rely</text></g><g id="edge50" class="edge"><title>Flipper_SAI-A-&gt;MCD_PAUSE_PROXY</title><path fill="none" stroke="#000" d="M405.5678,-1590.1066C400.7137,-1478.3464 374.9142,-884.3415 368.959,-747.2293"/><polygon fill="#000" stroke="#000" points="372.45 -746.952 368.52 -737.114 365.457 -747.256 372.45 -746.952"/><text x="376.38" y="-1172.868" fill="#000" font-family="Times,serif" font-size="14" text-anchor="middle">rely</text></g><g id="edge49" class="edge"><title>Flipper_SAI-A-&gt;MCD_END</title><path fill="none" stroke="#000" d="M457.0471,-1606.072C485.4017,-1604.8404 520.1297,-1603.3321 545.9731,-1602.2096"/><polygon fill="#000" stroke="#000" points="546.27 -1605.7 556.109 -1601.769 545.967 -1598.707 546.27 -1605.7"/><text x="490.627" y="-1608.341" fill="#000" font-family="Times,serif" font-size="14" text-anchor="middle">rely</text></g><g id="node32" class="node"><title>isolated</title><polygon fill="none" stroke="#000" points="1884.487 -644.062 1286.91 -644.062 1286.91 -468.062 1884.487 -468.062 1884.487 -644.062"/><text x="1585.699" y="-627.462" fill="#000" font-family="Times,serif" font-size="14" text-anchor="middle">Isolated Contracts:</text><text x="1585.699" y="-610.662" fill="#000" font-family="Times,serif" font-size="14" text-anchor="middle">MULTICALL, FAUCET, GOV_GUARD, MCD_IOU, VOTE_PROXY_FACTORY,</text><text x="1585.699" y="-593.862" fill="#000" font-family="Times,serif" font-size="14" text-anchor="middle">PROXY_ACTIONS, PROXY_ACTIONS_END, PROXY_ACTIONS_DSR, CDP_MANAGER,</text><text x="1585.699" y="-577.062" fill="#000" font-family="Times,serif" font-size="14" text-anchor="middle">GET_CDPS, PROXY_FACTORY, PROXY_REGISTRY, PROXY_PAUSE_ACTIONS,</text><text x="1585.699" y="-560.262" fill="#000" font-family="Times,serif" font-size="14" text-anchor="middle">MCD_GOV_ACTIONS, MIGRATION_PROXY_ACTIONS, ETH, PIP_ETH,</text><text x="1585.699" y="-543.462" fill="#000" font-family="Times,serif" font-size="14" text-anchor="middle">BAT, PIP_BAT, PIP_SAI, vatFab,</text><text x="1585.699" y="-526.662" fill="#000" font-family="Times,serif" font-size="14" text-anchor="middle">jugFab, vowFab, catFab, daiFab,</text><text x="1585.699" y="-509.862" fill="#000" font-family="Times,serif" font-size="14" text-anchor="middle">daiJoinFab, flapFab, flopFab, flipFab,</text><text x="1585.699" y="-493.062" fill="#000" font-family="Times,serif" font-size="14" text-anchor="middle">spotFab, potFab, pauseFab, 0x000000000000000000000000f493f2f20e19c86e,</text><text x="1585.699" y="-476.262" fill="#000" font-family="Times,serif" font-size="14" text-anchor="middle">0x00000000000000000000000093c3a7a88e7fa616, 0xb3361399294964bfe4b415e9d9f0baa022b08fad</text></g></g></svg>